<?xml version="1.0" encoding="UTF-8" standalone="no"?>
<!-- Created with Inkscape (http://www.inkscape.org/) -->

<svg
   xmlns:dc="http://purl.org/dc/elements/1.1/"
   xmlns:cc="http://creativecommons.org/ns#"
   xmlns:rdf="http://www.w3.org/1999/02/22-rdf-syntax-ns#"
   xmlns:svg="http://www.w3.org/2000/svg"
   xmlns="http://www.w3.org/2000/svg"
   xmlns:inkscape="http://www.inkscape.org/namespaces/inkscape"
   version="1.1"
   width="463.75"
   height="127.5"
   id="svg2"
   xml:space="preserve"><metadata
     id="metadata8"><rdf:RDF><cc:Work
         rdf:about=""><dc:format>image/svg+xml</dc:format><dc:type
           rdf:resource="http://purl.org/dc/dcmitype/StillImage" /></cc:Work></rdf:RDF></metadata><defs
     id="defs6"><clipPath
       id="clipPath18"><path
         d="m 0,8.33203 3710,0 0,1011.66997 -3710,0 L 0,8.33203 z"
         inkscape:connector-curvature="0"
         id="path20" /></clipPath><clipPath
       id="clipPath246"><path
         d="m 141.668,757.5 3473.332,0 0,-496.668 -3473.332,0 0,496.668 z"
         inkscape:connector-curvature="0"
         id="path248" /></clipPath><clipPath
       id="clipPath318"><path
         d="m 0,8 0,1012 3710,0 L 3710,8 0,8 z"
         inkscape:connector-curvature="0"
         id="path320" /></clipPath></defs><g
     transform="matrix(1.25,0,0,-1.25,0,127.5)"
     id="g10"><g
       transform="scale(0.1,0.1)"
       id="g12"><g
         id="g14"><g
           clip-path="url(#clipPath18)"
           id="g16"><path
             d="m 141.668,261.668 3472.5,0 0,495.832 -3472.5,0 0,-495.832 z"
             inkscape:connector-curvature="0"
             id="path22"
             style="fill:#ffffff;fill-opacity:1;fill-rule:evenodd;stroke:none" /><path
             d="m 141.668,261.668 0,495.832 3472.502,0 0,-495.832 -3472.502,0"
             inkscape:connector-curvature="0"
             id="path24"
             style="fill:none;stroke:#ffffff;stroke-width:5;stroke-linecap:butt;stroke-linejoin:round;stroke-miterlimit:10;stroke-opacity:1;stroke-dasharray:none" /><path
             d="m 141.668,261.668 3472.502,0"
             inkscape:connector-curvature="0"
             id="path26"
             style="fill:none;stroke:#000000;stroke-width:5;stroke-linecap:butt;stroke-linejoin:round;stroke-miterlimit:10;stroke-opacity:1;stroke-dasharray:none" /><path
             d="m 141.668,261.668 0,495.832"
             inkscape:connector-curvature="0"
             id="path28"
             style="fill:none;stroke:#000000;stroke-width:5;stroke-linecap:butt;stroke-linejoin:round;stroke-miterlimit:10;stroke-opacity:1;stroke-dasharray:none" /><path
             d="m 141.668,261.668 0,35"
             inkscape:connector-curvature="0"
             id="path30"
             style="fill:none;stroke:#000000;stroke-width:5;stroke-linecap:butt;stroke-linejoin:round;stroke-miterlimit:10;stroke-opacity:1;stroke-dasharray:none" /><g
             transform="scale(10,10)"
             id="g32"><text
               transform="matrix(1,0,0,-1,11.4168,14)"
               id="text34"><tspan
                 x="0"
                 y="0"
                 id="tspan36"
                 style="font-size:10px;font-variant:normal;font-weight:normal;writing-mode:lr-tb;fill:#000000;fill-opacity:1;fill-rule:nonzero;stroke:none;font-family:Helvetica;-inkscape-font-specification:Helvetica">0</tspan></text>
</g><path
             d="m 720.832,261.668 0,35"
             inkscape:connector-curvature="0"
             id="path38"
             style="fill:none;stroke:#000000;stroke-width:5;stroke-linecap:butt;stroke-linejoin:round;stroke-miterlimit:10;stroke-opacity:1;stroke-dasharray:none" /><g
             transform="scale(10,10)"
             id="g40"><text
               transform="matrix(1,0,0,-1,69.3332,14)"
               id="text42"><tspan
                 x="0"
                 y="0"
                 id="tspan44"
                 style="font-size:10px;font-variant:normal;font-weight:normal;writing-mode:lr-tb;fill:#000000;fill-opacity:1;fill-rule:nonzero;stroke:none;font-family:Helvetica;-inkscape-font-specification:Helvetica">5</tspan></text>
</g><path
             d="m 1299.17,261.668 0,35"
             inkscape:connector-curvature="0"
             id="path46"
             style="fill:none;stroke:#000000;stroke-width:5;stroke-linecap:butt;stroke-linejoin:round;stroke-miterlimit:10;stroke-opacity:1;stroke-dasharray:none" /><g
             transform="scale(10,10)"
             id="g48"><text
               transform="matrix(1,0,0,-1,124.417,14)"
               id="text50"><tspan
                 x="0 5.5599999"
                 y="0"
                 id="tspan52"
                 style="font-size:10px;font-variant:normal;font-weight:normal;writing-mode:lr-tb;fill:#000000;fill-opacity:1;fill-rule:nonzero;stroke:none;font-family:Helvetica;-inkscape-font-specification:Helvetica">10</tspan></text>
</g><path
             d="m 1878.33,261.668 0,35"
             inkscape:connector-curvature="0"
             id="path54"
             style="fill:none;stroke:#000000;stroke-width:5;stroke-linecap:butt;stroke-linejoin:round;stroke-miterlimit:10;stroke-opacity:1;stroke-dasharray:none" /><g
             transform="scale(10,10)"
             id="g56"><text
               transform="matrix(1,0,0,-1,182.333,14)"
               id="text58"><tspan
                 x="0 5.5599999"
                 y="0"
                 id="tspan60"
                 style="font-size:10px;font-variant:normal;font-weight:normal;writing-mode:lr-tb;fill:#000000;fill-opacity:1;fill-rule:nonzero;stroke:none;font-family:Helvetica;-inkscape-font-specification:Helvetica">15</tspan></text>
</g><path
             d="m 2456.67,261.668 0,35"
             inkscape:connector-curvature="0"
             id="path62"
             style="fill:none;stroke:#000000;stroke-width:5;stroke-linecap:butt;stroke-linejoin:round;stroke-miterlimit:10;stroke-opacity:1;stroke-dasharray:none" /><g
             transform="scale(10,10)"
             id="g64"><text
               transform="matrix(1,0,0,-1,240.167,14)"
               id="text66"><tspan
                 x="0 5.5599999"
                 y="0"
                 id="tspan68"
                 style="font-size:10px;font-variant:normal;font-weight:normal;writing-mode:lr-tb;fill:#000000;fill-opacity:1;fill-rule:nonzero;stroke:none;font-family:Helvetica;-inkscape-font-specification:Helvetica">20</tspan></text>
</g><path
             d="m 3035,261.668 0,35"
             inkscape:connector-curvature="0"
             id="path70"
             style="fill:none;stroke:#000000;stroke-width:5;stroke-linecap:butt;stroke-linejoin:round;stroke-miterlimit:10;stroke-opacity:1;stroke-dasharray:none" /><g
             transform="scale(10,10)"
             id="g72"><text
               transform="matrix(1,0,0,-1,298,14)"
               id="text74"><tspan
                 x="0 5.5599999"
                 y="0"
                 id="tspan76"
                 style="font-size:10px;font-variant:normal;font-weight:normal;writing-mode:lr-tb;fill:#000000;fill-opacity:1;fill-rule:nonzero;stroke:none;font-family:Helvetica;-inkscape-font-specification:Helvetica">25</tspan></text>
</g><path
             d="m 3614.17,261.668 0,35"
             inkscape:connector-curvature="0"
             id="path78"
             style="fill:none;stroke:#000000;stroke-width:5;stroke-linecap:butt;stroke-linejoin:round;stroke-miterlimit:10;stroke-opacity:1;stroke-dasharray:none" /><g
             transform="scale(10,10)"
             id="g80"><text
               transform="matrix(1,0,0,-1,355.917,14)"
               id="text82"><tspan
                 x="0 5.5599999"
                 y="0"
                 id="tspan84"
                 style="font-size:10px;font-variant:normal;font-weight:normal;writing-mode:lr-tb;fill:#000000;fill-opacity:1;fill-rule:nonzero;stroke:none;font-family:Helvetica;-inkscape-font-specification:Helvetica">30</tspan></text>
</g><path
             d="m 141.668,261.668 35,0"
             inkscape:connector-curvature="0"
             id="path86"
             style="fill:none;stroke:#000000;stroke-width:5;stroke-linecap:butt;stroke-linejoin:round;stroke-miterlimit:10;stroke-opacity:1;stroke-dasharray:none" /><g
             transform="scale(10,10)"
             id="g88"><text
               transform="matrix(1,0,0,-1,0,22.5)"
               id="text90"><tspan
                 x="0 5.8400002"
                 y="0"
                 id="tspan92"
                 style="font-size:10px;font-variant:normal;font-weight:normal;writing-mode:lr-tb;fill:#000000;fill-opacity:1;fill-rule:nonzero;stroke:none;font-family:Helvetica;-inkscape-font-specification:Helvetica">−1</tspan></text>
</g><path
             d="m 141.668,426.668 35,0"
             inkscape:connector-curvature="0"
             id="path94"
             style="fill:none;stroke:#000000;stroke-width:5;stroke-linecap:butt;stroke-linejoin:round;stroke-miterlimit:10;stroke-opacity:1;stroke-dasharray:none" /><g
             transform="scale(10,10)"
             id="g96"><text
               transform="matrix(1,0,0,-1,5.8332,39)"
               id="text98"><tspan
                 x="0"
                 y="0"
                 id="tspan100"
                 style="font-size:10px;font-variant:normal;font-weight:normal;writing-mode:lr-tb;fill:#000000;fill-opacity:1;fill-rule:nonzero;stroke:none;font-family:Helvetica;-inkscape-font-specification:Helvetica">0</tspan></text>
</g><path
             d="m 141.668,592.5 35,0"
             inkscape:connector-curvature="0"
             id="path102"
             style="fill:none;stroke:#000000;stroke-width:5;stroke-linecap:butt;stroke-linejoin:round;stroke-miterlimit:10;stroke-opacity:1;stroke-dasharray:none" /><g
             transform="scale(10,10)"
             id="g104"><text
               transform="matrix(1,0,0,-1,5.8332,55.5832)"
               id="text106"><tspan
                 x="0"
                 y="0"
                 id="tspan108"
                 style="font-size:10px;font-variant:normal;font-weight:normal;writing-mode:lr-tb;fill:#000000;fill-opacity:1;fill-rule:nonzero;stroke:none;font-family:Helvetica;-inkscape-font-specification:Helvetica">1</tspan></text>
</g><path
             d="m 141.668,757.5 35,0"
             inkscape:connector-curvature="0"
             id="path110"
             style="fill:none;stroke:#000000;stroke-width:5;stroke-linecap:butt;stroke-linejoin:round;stroke-miterlimit:10;stroke-opacity:1;stroke-dasharray:none" /><g
             transform="scale(10,10)"
             id="g112"><text
               transform="matrix(1,0,0,-1,5.8332,72.0832)"
               id="text114"><tspan
                 x="0"
                 y="0"
                 id="tspan116"
                 style="font-size:10px;font-variant:normal;font-weight:normal;writing-mode:lr-tb;fill:#000000;fill-opacity:1;fill-rule:nonzero;stroke:none;font-family:Helvetica;-inkscape-font-specification:Helvetica">2</tspan></text>
</g><path
             d="m 171.668,426.668 c 0,-16.566 -13.434,-30 -30,-30 -16.566,0 -30,13.434 -30,30 0,16.566 13.434,30 30,30 16.566,0 30,-13.434 30,-30"
             inkscape:connector-curvature="0"
             id="path118"
             style="fill:#000000;fill-opacity:1;fill-rule:nonzero;stroke:none" /><path
             d="m 287.5,426.668 c 0,-16.566 -13.434,-30 -30,-30 -16.566,0 -30,13.434 -30,30 0,16.566 13.434,30 30,30 16.566,0 30,-13.434 30,-30"
             inkscape:connector-curvature="0"
             id="path120"
             style="fill:#000000;fill-opacity:1;fill-rule:nonzero;stroke:none" /><path
             d="m 403.332,426.668 c 0,-16.566 -13.434,-30 -30,-30 -16.566,0 -30,13.434 -30,30 0,16.566 13.434,30 30,30 16.566,0 30,-13.434 30,-30"
             inkscape:connector-curvature="0"
             id="path122"
             style="fill:#000000;fill-opacity:1;fill-rule:nonzero;stroke:none" /><path
             d="m 519.168,426.668 c 0,-16.566 -13.434,-30 -30,-30 -16.566,0 -30,13.434 -30,30 0,16.566 13.434,30 30,30 16.566,0 30,-13.434 30,-30"
             inkscape:connector-curvature="0"
             id="path124"
             style="fill:#000000;fill-opacity:1;fill-rule:nonzero;stroke:none" /><path
             d="m 635,453.332 c 0,-16.566 -13.434,-30 -30,-30 -16.566,0 -30,13.434 -30,30 0,16.566 13.434,30 30,30 16.566,0 30,-13.434 30,-30"
             inkscape:connector-curvature="0"
             id="path126"
             style="fill:#000000;fill-opacity:1;fill-rule:nonzero;stroke:none" /><path
             d="m 750.832,460 c 0,-16.566 -13.434,-30 -30,-30 -16.566,0 -30,13.434 -30,30 0,16.566 13.434,30 30,30 16.566,0 30,-13.434 30,-30"
             inkscape:connector-curvature="0"
             id="path128"
             style="fill:#000000;fill-opacity:1;fill-rule:nonzero;stroke:none" /><path
             d="m 866.668,477.5 c 0,-16.566 -13.434,-30 -30,-30 -16.566,0 -30,13.434 -30,30 0,16.566 13.434,30 30,30 16.566,0 30,-13.434 30,-30"
             inkscape:connector-curvature="0"
             id="path130"
             style="fill:#000000;fill-opacity:1;fill-rule:nonzero;stroke:none" /><path
             d="m 982.5,501.668 c 0,-16.566 -13.434,-30 -30,-30 -16.566,0 -30,13.434 -30,30 0,16.566 13.434,30 30,30 16.566,0 30,-13.434 30,-30"
             inkscape:connector-curvature="0"
             id="path132"
             style="fill:#000000;fill-opacity:1;fill-rule:nonzero;stroke:none" /><path
             d="m 1097.5,526.668 c 0,-16.566 -13.43,-30 -30,-30 -16.57,0 -30,13.434 -30,30 0,16.566 13.43,30 30,30 16.57,0 30,-13.434 30,-30"
             inkscape:connector-curvature="0"
             id="path134"
             style="fill:#000000;fill-opacity:1;fill-rule:nonzero;stroke:none" /><path
             d="m 1213.33,545 c 0,-16.566 -13.43,-30 -30,-30 -16.56,0 -30,13.434 -30,30 0,16.566 13.44,30 30,30 16.57,0 30,-13.434 30,-30"
             inkscape:connector-curvature="0"
             id="path136"
             style="fill:#000000;fill-opacity:1;fill-rule:nonzero;stroke:none" /><path
             d="m 1329.17,551.668 c 0,-16.566 -13.44,-30 -30,-30 -16.57,0 -30,13.434 -30,30 0,16.566 13.43,30 30,30 16.56,0 30,-13.434 30,-30"
             inkscape:connector-curvature="0"
             id="path138"
             style="fill:#000000;fill-opacity:1;fill-rule:nonzero;stroke:none" /><path
             d="m 1445,707.5 c 0,-16.566 -13.43,-30 -30,-30 -16.57,0 -30,13.434 -30,30 0,16.566 13.43,30 30,30 16.57,0 30,-13.434 30,-30"
             inkscape:connector-curvature="0"
             id="path140"
             style="fill:#000000;fill-opacity:1;fill-rule:nonzero;stroke:none" /><path
             d="m 1560.83,681.668 c 0,-16.566 -13.43,-30 -30,-30 -16.56,0 -30,13.434 -30,30 0,16.566 13.44,30 30,30 16.57,0 30,-13.434 30,-30"
             inkscape:connector-curvature="0"
             id="path142"
             style="fill:#000000;fill-opacity:1;fill-rule:nonzero;stroke:none" /><path
             d="m 1676.67,641.668 c 0,-16.566 -13.44,-30 -30,-30 -16.57,0 -30,13.434 -30,30 0,16.566 13.43,30 30,30 16.56,0 30,-13.434 30,-30"
             inkscape:connector-curvature="0"
             id="path144"
             style="fill:#000000;fill-opacity:1;fill-rule:nonzero;stroke:none" /><path
             d="m 1792.5,592.5 c 0,-16.566 -13.43,-30 -30,-30 -16.57,0 -30,13.434 -30,30 0,16.566 13.43,30 30,30 16.57,0 30,-13.434 30,-30"
             inkscape:connector-curvature="0"
             id="path146"
             style="fill:#000000;fill-opacity:1;fill-rule:nonzero;stroke:none" /><path
             d="m 1908.33,540.832 c 0,-16.566 -13.43,-30 -30,-30 -16.56,0 -30,13.434 -30,30 0,16.566 13.44,30 30,30 16.57,0 30,-13.434 30,-30"
             inkscape:connector-curvature="0"
             id="path148"
             style="fill:#000000;fill-opacity:1;fill-rule:nonzero;stroke:none" /><path
             d="m 2023.33,495 c 0,-16.566 -13.43,-30 -30,-30 -16.56,0 -30,13.434 -30,30 0,16.566 13.44,30 30,30 16.57,0 30,-13.434 30,-30"
             inkscape:connector-curvature="0"
             id="path150"
             style="fill:#000000;fill-opacity:1;fill-rule:nonzero;stroke:none" /><path
             d="m 2139.17,460.832 c 0,-16.566 -13.44,-30 -30,-30 -16.57,0 -30,13.434 -30,30 0,16.566 13.43,30 30,30 16.56,0 30,-13.434 30,-30"
             inkscape:connector-curvature="0"
             id="path152"
             style="fill:#000000;fill-opacity:1;fill-rule:nonzero;stroke:none" /><path
             d="m 2255,442.5 c 0,-16.566 -13.43,-30 -30,-30 -16.57,0 -30,13.434 -30,30 0,16.566 13.43,30 30,30 16.57,0 30,-13.434 30,-30"
             inkscape:connector-curvature="0"
             id="path154"
             style="fill:#000000;fill-opacity:1;fill-rule:nonzero;stroke:none" /><path
             d="m 2370.83,276.668 c 0,-16.566 -13.43,-30 -30,-30 -16.56,0 -30,13.434 -30,30 0,16.566 13.44,30 30,30 16.57,0 30,-13.434 30,-30"
             inkscape:connector-curvature="0"
             id="path156"
             style="fill:#000000;fill-opacity:1;fill-rule:nonzero;stroke:none" /><path
             d="m 2486.67,291.668 c 0,-16.566 -13.44,-30 -30,-30 -16.57,0 -30,13.434 -30,30 0,16.566 13.43,30 30,30 16.56,0 30,-13.434 30,-30"
             inkscape:connector-curvature="0"
             id="path158"
             style="fill:#000000;fill-opacity:1;fill-rule:nonzero;stroke:none" /><path
             d="m 2602.5,317.5 c 0,-16.566 -13.43,-30 -30,-30 -16.57,0 -30,13.434 -30,30 0,16.566 13.43,30 30,30 16.57,0 30,-13.434 30,-30"
             inkscape:connector-curvature="0"
             id="path160"
             style="fill:#000000;fill-opacity:1;fill-rule:nonzero;stroke:none" /><path
             d="m 2718.33,347.5 c 0,-16.566 -13.43,-30 -30,-30 -16.56,0 -30,13.434 -30,30 0,16.566 13.44,30 30,30 16.57,0 30,-13.434 30,-30"
             inkscape:connector-curvature="0"
             id="path162"
             style="fill:#000000;fill-opacity:1;fill-rule:nonzero;stroke:none" /><path
             d="m 2833.33,375 c 0,-16.566 -13.43,-30 -30,-30 -16.56,0 -30,13.434 -30,30 0,16.566 13.44,30 30,30 16.57,0 30,-13.434 30,-30"
             inkscape:connector-curvature="0"
             id="path164"
             style="fill:#000000;fill-opacity:1;fill-rule:nonzero;stroke:none" /><path
             d="m 2949.17,393.332 c 0,-16.566 -13.44,-30 -30,-30 -16.57,0 -30,13.434 -30,30 0,16.566 13.43,30 30,30 16.56,0 30,-13.434 30,-30"
             inkscape:connector-curvature="0"
             id="path166"
             style="fill:#000000;fill-opacity:1;fill-rule:nonzero;stroke:none" /><path
             d="m 3065,400.832 c 0,-16.566 -13.43,-30 -30,-30 -16.57,0 -30,13.434 -30,30 0,16.566 13.43,30 30,30 16.57,0 30,-13.434 30,-30"
             inkscape:connector-curvature="0"
             id="path168"
             style="fill:#000000;fill-opacity:1;fill-rule:nonzero;stroke:none" /><path
             d="m 3180.83,426.668 c 0,-16.566 -13.43,-30 -30,-30 -16.56,0 -30,13.434 -30,30 0,16.566 13.44,30 30,30 16.57,0 30,-13.434 30,-30"
             inkscape:connector-curvature="0"
             id="path170"
             style="fill:#000000;fill-opacity:1;fill-rule:nonzero;stroke:none" /><path
             d="m 3296.67,426.668 c 0,-16.566 -13.44,-30 -30,-30 -16.57,0 -30,13.434 -30,30 0,16.566 13.43,30 30,30 16.56,0 30,-13.434 30,-30"
             inkscape:connector-curvature="0"
             id="path172"
             style="fill:#000000;fill-opacity:1;fill-rule:nonzero;stroke:none" /><path
             d="m 3412.5,426.668 c 0,-16.566 -13.43,-30 -30,-30 -16.57,0 -30,13.434 -30,30 0,16.566 13.43,30 30,30 16.57,0 30,-13.434 30,-30"
             inkscape:connector-curvature="0"
             id="path174"
             style="fill:#000000;fill-opacity:1;fill-rule:nonzero;stroke:none" /><path
             d="m 3528.33,426.668 c 0,-16.566 -13.43,-30 -30,-30 -16.56,0 -30,13.434 -30,30 0,16.566 13.44,30 30,30 16.57,0 30,-13.434 30,-30"
             inkscape:connector-curvature="0"
             id="path176"
             style="fill:#000000;fill-opacity:1;fill-rule:nonzero;stroke:none" /><path
             d="m 3644.17,426.668 c 0,-16.566 -13.44,-30 -30,-30 -16.57,0 -30,13.434 -30,30 0,16.566 13.43,30 30,30 16.56,0 30,-13.434 30,-30"
             inkscape:connector-curvature="0"
             id="path178"
             style="fill:#000000;fill-opacity:1;fill-rule:nonzero;stroke:none" /><path
             d="m 171.668,426.668 c 0,-16.566 -13.434,-30 -30,-30 -16.566,0 -30,13.434 -30,30 0,16.566 13.434,30 30,30 16.566,0 30,-13.434 30,-30"
             inkscape:connector-curvature="0"
             id="path180"
             style="fill:none;stroke:#000000;stroke-width:10;stroke-linecap:butt;stroke-linejoin:round;stroke-miterlimit:10;stroke-opacity:1;stroke-dasharray:none" /><path
             d="m 287.5,426.668 c 0,-16.566 -13.434,-30 -30,-30 -16.566,0 -30,13.434 -30,30 0,16.566 13.434,30 30,30 16.566,0 30,-13.434 30,-30"
             inkscape:connector-curvature="0"
             id="path182"
             style="fill:none;stroke:#000000;stroke-width:10;stroke-linecap:butt;stroke-linejoin:round;stroke-miterlimit:10;stroke-opacity:1;stroke-dasharray:none" /><path
             d="m 403.332,426.668 c 0,-16.566 -13.434,-30 -30,-30 -16.566,0 -30,13.434 -30,30 0,16.566 13.434,30 30,30 16.566,0 30,-13.434 30,-30"
             inkscape:connector-curvature="0"
             id="path184"
             style="fill:none;stroke:#000000;stroke-width:10;stroke-linecap:butt;stroke-linejoin:round;stroke-miterlimit:10;stroke-opacity:1;stroke-dasharray:none" /><path
             d="m 519.168,426.668 c 0,-16.566 -13.434,-30 -30,-30 -16.566,0 -30,13.434 -30,30 0,16.566 13.434,30 30,30 16.566,0 30,-13.434 30,-30"
             inkscape:connector-curvature="0"
             id="path186"
             style="fill:none;stroke:#000000;stroke-width:10;stroke-linecap:butt;stroke-linejoin:round;stroke-miterlimit:10;stroke-opacity:1;stroke-dasharray:none" /><path
             d="m 635,453.332 c 0,-16.566 -13.434,-30 -30,-30 -16.566,0 -30,13.434 -30,30 0,16.566 13.434,30 30,30 16.566,0 30,-13.434 30,-30"
             inkscape:connector-curvature="0"
             id="path188"
             style="fill:none;stroke:#000000;stroke-width:10;stroke-linecap:butt;stroke-linejoin:round;stroke-miterlimit:10;stroke-opacity:1;stroke-dasharray:none" /><path
             d="m 750.832,460 c 0,-16.566 -13.434,-30 -30,-30 -16.566,0 -30,13.434 -30,30 0,16.566 13.434,30 30,30 16.566,0 30,-13.434 30,-30"
             inkscape:connector-curvature="0"
             id="path190"
             style="fill:none;stroke:#000000;stroke-width:10;stroke-linecap:butt;stroke-linejoin:round;stroke-miterlimit:10;stroke-opacity:1;stroke-dasharray:none" /><path
             d="m 866.668,477.5 c 0,-16.566 -13.434,-30 -30,-30 -16.566,0 -30,13.434 -30,30 0,16.566 13.434,30 30,30 16.566,0 30,-13.434 30,-30"
             inkscape:connector-curvature="0"
             id="path192"
             style="fill:none;stroke:#000000;stroke-width:10;stroke-linecap:butt;stroke-linejoin:round;stroke-miterlimit:10;stroke-opacity:1;stroke-dasharray:none" /><path
             d="m 982.5,501.668 c 0,-16.566 -13.434,-30 -30,-30 -16.566,0 -30,13.434 -30,30 0,16.566 13.434,30 30,30 16.566,0 30,-13.434 30,-30"
             inkscape:connector-curvature="0"
             id="path194"
             style="fill:none;stroke:#000000;stroke-width:10;stroke-linecap:butt;stroke-linejoin:round;stroke-miterlimit:10;stroke-opacity:1;stroke-dasharray:none" /><path
             d="m 1097.5,526.668 c 0,-16.566 -13.43,-30 -30,-30 -16.57,0 -30,13.434 -30,30 0,16.566 13.43,30 30,30 16.57,0 30,-13.434 30,-30"
             inkscape:connector-curvature="0"
             id="path196"
             style="fill:none;stroke:#000000;stroke-width:10;stroke-linecap:butt;stroke-linejoin:round;stroke-miterlimit:10;stroke-opacity:1;stroke-dasharray:none" /><path
             d="m 1213.33,545 c 0,-16.566 -13.43,-30 -30,-30 -16.56,0 -30,13.434 -30,30 0,16.566 13.44,30 30,30 16.57,0 30,-13.434 30,-30"
             inkscape:connector-curvature="0"
             id="path198"
             style="fill:none;stroke:#000000;stroke-width:10;stroke-linecap:butt;stroke-linejoin:round;stroke-miterlimit:10;stroke-opacity:1;stroke-dasharray:none" /><path
             d="m 1329.17,551.668 c 0,-16.566 -13.44,-30 -30,-30 -16.57,0 -30,13.434 -30,30 0,16.566 13.43,30 30,30 16.56,0 30,-13.434 30,-30"
             inkscape:connector-curvature="0"
             id="path200"
             style="fill:none;stroke:#000000;stroke-width:10;stroke-linecap:butt;stroke-linejoin:round;stroke-miterlimit:10;stroke-opacity:1;stroke-dasharray:none" /><path
             d="m 1445,707.5 c 0,-16.566 -13.43,-30 -30,-30 -16.57,0 -30,13.434 -30,30 0,16.566 13.43,30 30,30 16.57,0 30,-13.434 30,-30"
             inkscape:connector-curvature="0"
             id="path202"
             style="fill:none;stroke:#000000;stroke-width:10;stroke-linecap:butt;stroke-linejoin:round;stroke-miterlimit:10;stroke-opacity:1;stroke-dasharray:none" /><path
             d="m 1560.83,681.668 c 0,-16.566 -13.43,-30 -30,-30 -16.56,0 -30,13.434 -30,30 0,16.566 13.44,30 30,30 16.57,0 30,-13.434 30,-30"
             inkscape:connector-curvature="0"
             id="path204"
             style="fill:none;stroke:#000000;stroke-width:10;stroke-linecap:butt;stroke-linejoin:round;stroke-miterlimit:10;stroke-opacity:1;stroke-dasharray:none" /><path
             d="m 1676.67,641.668 c 0,-16.566 -13.44,-30 -30,-30 -16.57,0 -30,13.434 -30,30 0,16.566 13.43,30 30,30 16.56,0 30,-13.434 30,-30"
             inkscape:connector-curvature="0"
             id="path206"
             style="fill:none;stroke:#000000;stroke-width:10;stroke-linecap:butt;stroke-linejoin:round;stroke-miterlimit:10;stroke-opacity:1;stroke-dasharray:none" /><path
             d="m 1792.5,592.5 c 0,-16.566 -13.43,-30 -30,-30 -16.57,0 -30,13.434 -30,30 0,16.566 13.43,30 30,30 16.57,0 30,-13.434 30,-30"
             inkscape:connector-curvature="0"
             id="path208"
             style="fill:none;stroke:#000000;stroke-width:10;stroke-linecap:butt;stroke-linejoin:round;stroke-miterlimit:10;stroke-opacity:1;stroke-dasharray:none" /><path
             d="m 1908.33,540.832 c 0,-16.566 -13.43,-30 -30,-30 -16.56,0 -30,13.434 -30,30 0,16.566 13.44,30 30,30 16.57,0 30,-13.434 30,-30"
             inkscape:connector-curvature="0"
             id="path210"
             style="fill:none;stroke:#000000;stroke-width:10;stroke-linecap:butt;stroke-linejoin:round;stroke-miterlimit:10;stroke-opacity:1;stroke-dasharray:none" /><path
             d="m 2023.33,495 c 0,-16.566 -13.43,-30 -30,-30 -16.56,0 -30,13.434 -30,30 0,16.566 13.44,30 30,30 16.57,0 30,-13.434 30,-30"
             inkscape:connector-curvature="0"
             id="path212"
             style="fill:none;stroke:#000000;stroke-width:10;stroke-linecap:butt;stroke-linejoin:round;stroke-miterlimit:10;stroke-opacity:1;stroke-dasharray:none" /><path
             d="m 2139.17,460.832 c 0,-16.566 -13.44,-30 -30,-30 -16.57,0 -30,13.434 -30,30 0,16.566 13.43,30 30,30 16.56,0 30,-13.434 30,-30"
             inkscape:connector-curvature="0"
             id="path214"
             style="fill:none;stroke:#000000;stroke-width:10;stroke-linecap:butt;stroke-linejoin:round;stroke-miterlimit:10;stroke-opacity:1;stroke-dasharray:none" /><path
             d="m 2255,442.5 c 0,-16.566 -13.43,-30 -30,-30 -16.57,0 -30,13.434 -30,30 0,16.566 13.43,30 30,30 16.57,0 30,-13.434 30,-30"
             inkscape:connector-curvature="0"
             id="path216"
             style="fill:none;stroke:#000000;stroke-width:10;stroke-linecap:butt;stroke-linejoin:round;stroke-miterlimit:10;stroke-opacity:1;stroke-dasharray:none" /><path
             d="m 2370.83,276.668 c 0,-16.566 -13.43,-30 -30,-30 -16.56,0 -30,13.434 -30,30 0,16.566 13.44,30 30,30 16.57,0 30,-13.434 30,-30"
             inkscape:connector-curvature="0"
             id="path218"
             style="fill:none;stroke:#000000;stroke-width:10;stroke-linecap:butt;stroke-linejoin:round;stroke-miterlimit:10;stroke-opacity:1;stroke-dasharray:none" /><path
             d="m 2486.67,291.668 c 0,-16.566 -13.44,-30 -30,-30 -16.57,0 -30,13.434 -30,30 0,16.566 13.43,30 30,30 16.56,0 30,-13.434 30,-30"
             inkscape:connector-curvature="0"
             id="path220"
             style="fill:none;stroke:#000000;stroke-width:10;stroke-linecap:butt;stroke-linejoin:round;stroke-miterlimit:10;stroke-opacity:1;stroke-dasharray:none" /><path
             d="m 2602.5,317.5 c 0,-16.566 -13.43,-30 -30,-30 -16.57,0 -30,13.434 -30,30 0,16.566 13.43,30 30,30 16.57,0 30,-13.434 30,-30"
             inkscape:connector-curvature="0"
             id="path222"
             style="fill:none;stroke:#000000;stroke-width:10;stroke-linecap:butt;stroke-linejoin:round;stroke-miterlimit:10;stroke-opacity:1;stroke-dasharray:none" /><path
             d="m 2718.33,347.5 c 0,-16.566 -13.43,-30 -30,-30 -16.56,0 -30,13.434 -30,30 0,16.566 13.44,30 30,30 16.57,0 30,-13.434 30,-30"
             inkscape:connector-curvature="0"
             id="path224"
             style="fill:none;stroke:#000000;stroke-width:10;stroke-linecap:butt;stroke-linejoin:round;stroke-miterlimit:10;stroke-opacity:1;stroke-dasharray:none" /><path
             d="m 2833.33,375 c 0,-16.566 -13.43,-30 -30,-30 -16.56,0 -30,13.434 -30,30 0,16.566 13.44,30 30,30 16.57,0 30,-13.434 30,-30"
             inkscape:connector-curvature="0"
             id="path226"
             style="fill:none;stroke:#000000;stroke-width:10;stroke-linecap:butt;stroke-linejoin:round;stroke-miterlimit:10;stroke-opacity:1;stroke-dasharray:none" /><path
             d="m 2949.17,393.332 c 0,-16.566 -13.44,-30 -30,-30 -16.57,0 -30,13.434 -30,30 0,16.566 13.43,30 30,30 16.56,0 30,-13.434 30,-30"
             inkscape:connector-curvature="0"
             id="path228"
             style="fill:none;stroke:#000000;stroke-width:10;stroke-linecap:butt;stroke-linejoin:round;stroke-miterlimit:10;stroke-opacity:1;stroke-dasharray:none" /><path
             d="m 3065,400.832 c 0,-16.566 -13.43,-30 -30,-30 -16.57,0 -30,13.434 -30,30 0,16.566 13.43,30 30,30 16.57,0 30,-13.434 30,-30"
             inkscape:connector-curvature="0"
             id="path230"
             style="fill:none;stroke:#000000;stroke-width:10;stroke-linecap:butt;stroke-linejoin:round;stroke-miterlimit:10;stroke-opacity:1;stroke-dasharray:none" /><path
             d="m 3180.83,426.668 c 0,-16.566 -13.43,-30 -30,-30 -16.56,0 -30,13.434 -30,30 0,16.566 13.44,30 30,30 16.57,0 30,-13.434 30,-30"
             inkscape:connector-curvature="0"
             id="path232"
             style="fill:none;stroke:#000000;stroke-width:10;stroke-linecap:butt;stroke-linejoin:round;stroke-miterlimit:10;stroke-opacity:1;stroke-dasharray:none" /><path
             d="m 3296.67,426.668 c 0,-16.566 -13.44,-30 -30,-30 -16.57,0 -30,13.434 -30,30 0,16.566 13.43,30 30,30 16.56,0 30,-13.434 30,-30"
             inkscape:connector-curvature="0"
             id="path234"
             style="fill:none;stroke:#000000;stroke-width:10;stroke-linecap:butt;stroke-linejoin:round;stroke-miterlimit:10;stroke-opacity:1;stroke-dasharray:none" /><path
             d="m 3412.5,426.668 c 0,-16.566 -13.43,-30 -30,-30 -16.57,0 -30,13.434 -30,30 0,16.566 13.43,30 30,30 16.57,0 30,-13.434 30,-30"
             inkscape:connector-curvature="0"
             id="path236"
             style="fill:none;stroke:#000000;stroke-width:10;stroke-linecap:butt;stroke-linejoin:round;stroke-miterlimit:10;stroke-opacity:1;stroke-dasharray:none" /><path
             d="m 3528.33,426.668 c 0,-16.566 -13.43,-30 -30,-30 -16.56,0 -30,13.434 -30,30 0,16.566 13.44,30 30,30 16.57,0 30,-13.434 30,-30"
             inkscape:connector-curvature="0"
             id="path238"
             style="fill:none;stroke:#000000;stroke-width:10;stroke-linecap:butt;stroke-linejoin:round;stroke-miterlimit:10;stroke-opacity:1;stroke-dasharray:none" /><path
             d="m 3644.17,426.668 c 0,-16.566 -13.44,-30 -30,-30 -16.57,0 -30,13.434 -30,30 0,16.566 13.43,30 30,30 16.56,0 30,-13.434 30,-30"
             inkscape:connector-curvature="0"
             id="path240"
             style="fill:none;stroke:#000000;stroke-width:10;stroke-linecap:butt;stroke-linejoin:round;stroke-miterlimit:10;stroke-opacity:1;stroke-dasharray:none" /></g></g><g
         id="g242"><g
           clip-path="url(#clipPath246)"
           id="g244"><path
             d="m 146.668,426.668 c 0,-2.758 -2.242,-5 -5,-5 -2.758,0 -5,2.242 -5,5 0,2.758 2.242,5 5,5 2.758,0 5,-2.242 5,-5"
             inkscape:connector-curvature="0"
             id="path250"
             style="fill:#000000;fill-opacity:1;fill-rule:nonzero;stroke:none" /><path
             d="m 262.5,426.668 c 0,-2.758 -2.242,-5 -5,-5 -2.758,0 -5,2.242 -5,5 0,2.758 2.242,5 5,5 2.758,0 5,-2.242 5,-5"
             inkscape:connector-curvature="0"
             id="path252"
             style="fill:#000000;fill-opacity:1;fill-rule:nonzero;stroke:none" /><path
             d="m 378.332,426.668 c 0,-2.758 -2.242,-5 -5,-5 -2.758,0 -5,2.242 -5,5 0,2.758 2.242,5 5,5 2.758,0 5,-2.242 5,-5"
             inkscape:connector-curvature="0"
             id="path254"
             style="fill:#000000;fill-opacity:1;fill-rule:nonzero;stroke:none" /><path
             d="m 494.168,426.668 c 0,-2.758 -2.242,-5 -5,-5 -2.758,0 -5,2.242 -5,5 0,2.758 2.242,5 5,5 2.758,0 5,-2.242 5,-5"
             inkscape:connector-curvature="0"
             id="path256"
             style="fill:#000000;fill-opacity:1;fill-rule:nonzero;stroke:none" /><path
             d="m 605,426.668 0,26.664"
             inkscape:connector-curvature="0"
             id="path258"
             style="fill:none;stroke:#000000;stroke-width:10;stroke-linecap:butt;stroke-linejoin:round;stroke-miterlimit:10;stroke-opacity:1;stroke-dasharray:none" /><path
             d="m 720.832,426.668 0,33.332"
             inkscape:connector-curvature="0"
             id="path260"
             style="fill:none;stroke:#000000;stroke-width:10;stroke-linecap:butt;stroke-linejoin:round;stroke-miterlimit:10;stroke-opacity:1;stroke-dasharray:none" /><path
             d="m 836.668,426.668 0,50.832"
             inkscape:connector-curvature="0"
             id="path262"
             style="fill:none;stroke:#000000;stroke-width:10;stroke-linecap:butt;stroke-linejoin:round;stroke-miterlimit:10;stroke-opacity:1;stroke-dasharray:none" /><path
             d="m 952.5,426.668 0,75"
             inkscape:connector-curvature="0"
             id="path264"
             style="fill:none;stroke:#000000;stroke-width:10;stroke-linecap:butt;stroke-linejoin:round;stroke-miterlimit:10;stroke-opacity:1;stroke-dasharray:none" /><path
             d="m 1067.5,426.668 0,100"
             inkscape:connector-curvature="0"
             id="path266"
             style="fill:none;stroke:#000000;stroke-width:10;stroke-linecap:butt;stroke-linejoin:round;stroke-miterlimit:10;stroke-opacity:1;stroke-dasharray:none" /><path
             d="m 1183.33,426.668 0,118.332"
             inkscape:connector-curvature="0"
             id="path268"
             style="fill:none;stroke:#000000;stroke-width:10;stroke-linecap:butt;stroke-linejoin:round;stroke-miterlimit:10;stroke-opacity:1;stroke-dasharray:none" /><path
             d="m 1299.17,426.668 0,125"
             inkscape:connector-curvature="0"
             id="path270"
             style="fill:none;stroke:#000000;stroke-width:10;stroke-linecap:butt;stroke-linejoin:round;stroke-miterlimit:10;stroke-opacity:1;stroke-dasharray:none" /><path
             d="m 1415,426.668 0,280.832"
             inkscape:connector-curvature="0"
             id="path272"
             style="fill:none;stroke:#000000;stroke-width:10;stroke-linecap:butt;stroke-linejoin:round;stroke-miterlimit:10;stroke-opacity:1;stroke-dasharray:none" /><path
             d="m 1530.83,426.668 0,255"
             inkscape:connector-curvature="0"
             id="path274"
             style="fill:none;stroke:#000000;stroke-width:10;stroke-linecap:butt;stroke-linejoin:round;stroke-miterlimit:10;stroke-opacity:1;stroke-dasharray:none" /><path
             d="m 1646.67,426.668 0,215"
             inkscape:connector-curvature="0"
             id="path276"
             style="fill:none;stroke:#000000;stroke-width:10;stroke-linecap:butt;stroke-linejoin:round;stroke-miterlimit:10;stroke-opacity:1;stroke-dasharray:none" /><path
             d="m 1762.5,426.668 0,165.832"
             inkscape:connector-curvature="0"
             id="path278"
             style="fill:none;stroke:#000000;stroke-width:10;stroke-linecap:butt;stroke-linejoin:round;stroke-miterlimit:10;stroke-opacity:1;stroke-dasharray:none" /><path
             d="m 1878.33,426.668 0,114.164"
             inkscape:connector-curvature="0"
             id="path280"
             style="fill:none;stroke:#000000;stroke-width:10;stroke-linecap:butt;stroke-linejoin:round;stroke-miterlimit:10;stroke-opacity:1;stroke-dasharray:none" /><path
             d="m 1993.33,426.668 0,68.332"
             inkscape:connector-curvature="0"
             id="path282"
             style="fill:none;stroke:#000000;stroke-width:10;stroke-linecap:butt;stroke-linejoin:round;stroke-miterlimit:10;stroke-opacity:1;stroke-dasharray:none" /><path
             d="m 2109.17,426.668 0,34.164"
             inkscape:connector-curvature="0"
             id="path284"
             style="fill:none;stroke:#000000;stroke-width:10;stroke-linecap:butt;stroke-linejoin:round;stroke-miterlimit:10;stroke-opacity:1;stroke-dasharray:none" /><path
             d="m 2225,426.668 0,15.832"
             inkscape:connector-curvature="0"
             id="path286"
             style="fill:none;stroke:#000000;stroke-width:10;stroke-linecap:butt;stroke-linejoin:round;stroke-miterlimit:10;stroke-opacity:1;stroke-dasharray:none" /><path
             d="m 2340.83,426.668 0,-150"
             inkscape:connector-curvature="0"
             id="path288"
             style="fill:none;stroke:#000000;stroke-width:10;stroke-linecap:butt;stroke-linejoin:round;stroke-miterlimit:10;stroke-opacity:1;stroke-dasharray:none" /><path
             d="m 2456.67,426.668 0,-135"
             inkscape:connector-curvature="0"
             id="path290"
             style="fill:none;stroke:#000000;stroke-width:10;stroke-linecap:butt;stroke-linejoin:round;stroke-miterlimit:10;stroke-opacity:1;stroke-dasharray:none" /><path
             d="m 2572.5,426.668 0,-109.168"
             inkscape:connector-curvature="0"
             id="path292"
             style="fill:none;stroke:#000000;stroke-width:10;stroke-linecap:butt;stroke-linejoin:round;stroke-miterlimit:10;stroke-opacity:1;stroke-dasharray:none" /><path
             d="m 2688.33,426.668 0,-79.168"
             inkscape:connector-curvature="0"
             id="path294"
             style="fill:none;stroke:#000000;stroke-width:10;stroke-linecap:butt;stroke-linejoin:round;stroke-miterlimit:10;stroke-opacity:1;stroke-dasharray:none" /><path
             d="m 2803.33,426.668 0,-51.668"
             inkscape:connector-curvature="0"
             id="path296"
             style="fill:none;stroke:#000000;stroke-width:10;stroke-linecap:butt;stroke-linejoin:round;stroke-miterlimit:10;stroke-opacity:1;stroke-dasharray:none" /><path
             d="m 2919.17,426.668 0,-33.336"
             inkscape:connector-curvature="0"
             id="path298"
             style="fill:none;stroke:#000000;stroke-width:10;stroke-linecap:butt;stroke-linejoin:round;stroke-miterlimit:10;stroke-opacity:1;stroke-dasharray:none" /><path
             d="m 3035,426.668 0,-25.836"
             inkscape:connector-curvature="0"
             id="path300"
             style="fill:none;stroke:#000000;stroke-width:10;stroke-linecap:butt;stroke-linejoin:round;stroke-miterlimit:10;stroke-opacity:1;stroke-dasharray:none" /><path
             d="m 3155.83,426.668 c 0,-2.758 -2.24,-5 -5,-5 -2.76,0 -5,2.242 -5,5 0,2.758 2.24,5 5,5 2.76,0 5,-2.242 5,-5"
             inkscape:connector-curvature="0"
             id="path302"
             style="fill:#000000;fill-opacity:1;fill-rule:nonzero;stroke:none" /><path
             d="m 3271.67,426.668 c 0,-2.758 -2.24,-5 -5,-5 -2.76,0 -5,2.242 -5,5 0,2.758 2.24,5 5,5 2.76,0 5,-2.242 5,-5"
             inkscape:connector-curvature="0"
             id="path304"
             style="fill:#000000;fill-opacity:1;fill-rule:nonzero;stroke:none" /><path
             d="m 3387.5,426.668 c 0,-2.758 -2.24,-5 -5,-5 -2.76,0 -5,2.242 -5,5 0,2.758 2.24,5 5,5 2.76,0 5,-2.242 5,-5"
             inkscape:connector-curvature="0"
             id="path306"
             style="fill:#000000;fill-opacity:1;fill-rule:nonzero;stroke:none" /><path
             d="m 3503.33,426.668 c 0,-2.758 -2.24,-5 -5,-5 -2.76,0 -5,2.242 -5,5 0,2.758 2.24,5 5,5 2.76,0 5,-2.242 5,-5"
             inkscape:connector-curvature="0"
             id="path308"
             style="fill:#000000;fill-opacity:1;fill-rule:nonzero;stroke:none" /><path
             d="m 3619.17,426.668 c 0,-2.758 -2.24,-5 -5,-5 -2.76,0 -5,2.242 -5,5 0,2.758 2.24,5 5,5 2.76,0 5,-2.242 5,-5"
             inkscape:connector-curvature="0"
             id="path310"
             style="fill:#000000;fill-opacity:1;fill-rule:nonzero;stroke:none" /><path
             d="m 141.668,426.668 3472.502,0"
             inkscape:connector-curvature="0"
             id="path312"
             style="fill:none;stroke:#000000;stroke-width:5;stroke-linecap:butt;stroke-linejoin:round;stroke-miterlimit:10;stroke-opacity:1;stroke-dasharray:none" /></g></g><g
         id="g314"><g
           clip-path="url(#clipPath318)"
           id="g316"><g
             transform="scale(10,10)"
             id="g322"><text
               transform="matrix(1,0,0,-1,155.333,84.9168)"
               id="text324"><tspan
                 x="0"
                 y="0"
                 id="tspan326"
                 style="font-size:14px;font-variant:normal;font-weight:normal;writing-mode:lr-tb;fill:#000000;fill-opacity:1;fill-rule:nonzero;stroke:none;font-family:CMMI10;-inkscape-font-specification:CMMI10">x</tspan></text>
<text
               transform="matrix(1,0,0,-1,164.083,84.9168)"
               id="text328"><tspan
                 x="0"
                 y="0"
                 id="tspan330"
                 style="font-size:14px;font-variant:normal;font-weight:normal;writing-mode:lr-tb;fill:#000000;fill-opacity:1;fill-rule:nonzero;stroke:none;font-family:CMR10;-inkscape-font-specification:CMR10">[</tspan></text>
<text
               transform="matrix(1,0,0,-1,168.833,84.9168)"
               id="text332"><tspan
                 x="0"
                 y="0"
                 id="tspan334"
                 style="font-size:14px;font-variant:normal;font-weight:normal;writing-mode:lr-tb;fill:#000000;fill-opacity:1;fill-rule:nonzero;stroke:none;font-family:CMMI10;-inkscape-font-specification:CMMI10">n</tspan></text>
<text
               transform="matrix(1,0,0,-1,178.4998,84.9168)"
               id="text336"><tspan
                 x="0 7.836318"
                 y="0"
                 id="tspan338"
                 style="font-size:14px;font-variant:normal;font-weight:normal;writing-mode:lr-tb;fill:#000000;fill-opacity:1;fill-rule:nonzero;stroke:none;font-family:CMR10;-inkscape-font-specification:CMR10">]+</tspan></text>
<text
               transform="matrix(1,0,0,-1,201.4166,84.9168)"
               id="text340"><tspan
                 x="0"
                 y="0"
                 id="tspan342"
                 style="font-size:14px;font-variant:normal;font-weight:normal;writing-mode:lr-tb;fill:#000000;fill-opacity:1;fill-rule:nonzero;stroke:none;font-family:CMMI10;-inkscape-font-specification:CMMI10">y</tspan></text>
<text
               transform="matrix(1,0,0,-1,209.9166,84.9168)"
               id="text344"><tspan
                 x="0"
                 y="0"
                 id="tspan346"
                 style="font-size:14px;font-variant:normal;font-weight:normal;writing-mode:lr-tb;fill:#000000;fill-opacity:1;fill-rule:nonzero;stroke:none;font-family:CMR10;-inkscape-font-specification:CMR10">[</tspan></text>
<text
               transform="matrix(1,0,0,-1,214.6666,84.9168)"
               id="text348"><tspan
                 x="0"
                 y="0"
                 id="tspan350"
                 style="font-size:14px;font-variant:normal;font-weight:normal;writing-mode:lr-tb;fill:#000000;fill-opacity:1;fill-rule:nonzero;stroke:none;font-family:CMMI10;-inkscape-font-specification:CMMI10">n</tspan></text>
<text
               transform="matrix(1,0,0,-1,224.2498,84.9168)"
               id="text352"><tspan
                 x="0"
                 y="0"
                 id="tspan354"
                 style="font-size:14px;font-variant:normal;font-weight:normal;writing-mode:lr-tb;fill:#000000;fill-opacity:1;fill-rule:nonzero;stroke:none;font-family:CMR10;-inkscape-font-specification:CMR10">]</tspan></text>
<text
               transform="matrix(1,0,0,-1,183.4998,3.3332)"
               id="text356"><tspan
                 x="0"
                 y="0"
                 id="tspan358"
                 style="font-size:14px;font-variant:normal;font-weight:normal;writing-mode:lr-tb;fill:#000000;fill-opacity:1;fill-rule:nonzero;stroke:none;font-family:CMMI10;-inkscape-font-specification:CMMI10">n</tspan></text>
</g></g></g></g></g></svg>